STARTFONT 2.3
FONT -FontForge-Zen Loop-Book-R-Normal--14-140-72-72-P-44-ISO10646-1
SIZE 14 72 72  2
FONTBOUNDINGBOX 13 17 -2 -4
COMMENT "Generated by fontforge, http://fontforge.sourceforge.net"
COMMENT "Copyright 2021 The Zen-Loop Project Authors (https://github.com/googlefonts/zen-loop)"
STARTPROPERTIES 40
FOUNDRY "FontForge"
FAMILY_NAME "Zen Loop"
WEIGHT_NAME "Book"
SLANT "R"
SETWIDTH_NAME "Normal"
ADD_STYLE_NAME ""
PIXEL_SIZE 14
POINT_SIZE 140
RESOLUTION_X 72
RESOLUTION_Y 72
SPACING "P"
AVERAGE_WIDTH 44
CHARSET_REGISTRY "ISO10646"
CHARSET_ENCODING "1"
FONTNAME_REGISTRY ""
CHARSET_COLLECTIONS "ISO10646-1"
BITS_PER_PIXEL 2
FONT_NAME "ZenLoop-Regular"
FACE_NAME "Zen Loop Regular"
COPYRIGHT "Copyright 2021 The Zen-Loop Project Authors (https://github.com/googlefonts/zen-loop)"
FONT_VERSION "1.000; ttfautohint (v1.8.3)"
FONT_ASCENT 11
FONT_DESCENT 3
UNDERLINE_POSITION -2
UNDERLINE_THICKNESS 1
X_HEIGHT 6
CAP_HEIGHT 9
RAW_ASCENT 800
RAW_DESCENT 200
NORM_SPACE 3
RELATIVE_WEIGHT 40
RELATIVE_SETWIDTH 50
SUPERSCRIPT_X 0
SUPERSCRIPT_Y 4
SUPERSCRIPT_SIZE 8
SUBSCRIPT_X 0
SUBSCRIPT_Y 1
SUBSCRIPT_SIZE 8
AVG_LOWERCASE_WIDTH 39
AVG_UPPERCASE_WIDTH 52
ENDPROPERTIES
CHARS 248
STARTCHAR CR
ENCODING 13
SWIDTH 600 0
DWIDTH 8 0
BBX 1 1 0 0
BITMAP
00
ENDCHAR
STARTCHAR space
ENCODING 32
SWIDTH 240 0
DWIDTH 3 0
BBX 1 1 0 0
BITMAP
00
ENDCHAR
STARTCHAR exclam
ENCODING 33
SWIDTH 141 0
DWIDTH 2 0
BBX 1 1 1 0
BITMAP
00
ENDCHAR
STARTCHAR quotedbl
ENCODING 34
SWIDTH 195 0
DWIDTH 3 0
BBX 2 3 0 7
BITMAP
50
50
50
ENDCHAR
STARTCHAR numbersign
ENCODING 35
SWIDTH 454 0
DWIDTH 6 0
BBX 6 10 0 0
BITMAP
0410
0440
0440
1950
0440
1040
5540
1100
1100
1100
ENDCHAR
STARTCHAR dollar
ENCODING 36
SWIDTH 356 0
DWIDTH 5 0
BBX 5 12 0 -1
BITMAP
0400
1900
4400
4400
1400
1400
0500
0540
0440
4440
1900
0400
ENDCHAR
STARTCHAR percent
ENCODING 37
SWIDTH 470 0
DWIDTH 7 0
BBX 6 10 0 0
BITMAP
1400
4440
4140
4500
1500
0140
0510
0510
1110
1050
ENDCHAR
STARTCHAR ampersand
ENCODING 38
SWIDTH 520 0
DWIDTH 7 0
BBX 7 10 0 0
BITMAP
0540
0440
0440
0500
0410
1100
4140
4040
4140
1514
ENDCHAR
STARTCHAR quotesingle
ENCODING 39
SWIDTH 121 0
DWIDTH 2 0
BBX 1 3 0 7
BITMAP
40
40
40
ENDCHAR
STARTCHAR parenleft
ENCODING 40
SWIDTH 233 0
DWIDTH 3 0
BBX 2 11 1 -1
BITMAP
10
40
40
40
40
40
40
40
40
00
10
ENDCHAR
STARTCHAR parenright
ENCODING 41
SWIDTH 233 0
DWIDTH 3 0
BBX 3 11 0 0
BITMAP
40
10
10
10
04
04
04
10
10
10
40
ENDCHAR
STARTCHAR asterisk
ENCODING 42
SWIDTH 313 0
DWIDTH 4 0
BBX 3 3 1 7
BITMAP
10
64
50
ENDCHAR
STARTCHAR plus
ENCODING 43
SWIDTH 577 0
DWIDTH 8 0
BBX 6 7 1 0
BITMAP
0100
0100
0100
5550
0100
0100
0100
ENDCHAR
STARTCHAR comma
ENCODING 44
SWIDTH 145 0
DWIDTH 2 0
BBX 2 3 0 -2
BITMAP
10
10
40
ENDCHAR
STARTCHAR hyphen
ENCODING 45
SWIDTH 286 0
DWIDTH 4 0
BBX 2 1 1 4
BITMAP
50
ENDCHAR
STARTCHAR period
ENCODING 46
SWIDTH 181 0
DWIDTH 3 0
BBX 1 1 1 0
BITMAP
40
ENDCHAR
STARTCHAR slash
ENCODING 47
SWIDTH 292 0
DWIDTH 4 0
BBX 4 12 0 -1
BITMAP
01
01
01
04
04
04
10
10
10
40
40
40
ENDCHAR
STARTCHAR zero
ENCODING 48
SWIDTH 378 0
DWIDTH 5 0
BBX 5 10 0 0
BITMAP
1500
1040
4040
4040
4040
4040
4040
4040
1040
1500
ENDCHAR
STARTCHAR one
ENCODING 49
SWIDTH 303 0
DWIDTH 4 0
BBX 4 10 0 0
BITMAP
14
04
04
04
04
04
04
04
04
59
ENDCHAR
STARTCHAR two
ENCODING 50
SWIDTH 343 0
DWIDTH 5 0
BBX 5 10 0 0
BITMAP
1500
0100
0040
0100
0100
0400
0400
1000
4000
5500
ENDCHAR
STARTCHAR three
ENCODING 51
SWIDTH 377 0
DWIDTH 5 0
BBX 4 10 1 0
BITMAP
54
41
01
04
14
01
01
01
01
54
ENDCHAR
STARTCHAR four
ENCODING 52
SWIDTH 389 0
DWIDTH 5 0
BBX 5 10 0 0
BITMAP
0100
0100
0400
0500
1100
1100
4100
5640
0100
0100
ENDCHAR
STARTCHAR five
ENCODING 53
SWIDTH 372 0
DWIDTH 5 0
BBX 5 11 0 0
BITMAP
0040
1500
1000
1000
1000
1500
5040
0040
0040
0040
1500
ENDCHAR
STARTCHAR six
ENCODING 54
SWIDTH 360 0
DWIDTH 5 0
BBX 5 10 0 0
BITMAP
0400
0400
1000
1000
5500
4040
4040
4040
1040
1500
ENDCHAR
STARTCHAR seven
ENCODING 55
SWIDTH 321 0
DWIDTH 5 0
BBX 4 10 0 0
BITMAP
55
01
01
04
04
04
10
10
10
40
ENDCHAR
STARTCHAR eight
ENCODING 56
SWIDTH 377 0
DWIDTH 5 0
BBX 5 10 0 0
BITMAP
1500
0040
4040
1100
0500
1100
4040
4040
4040
1500
ENDCHAR
STARTCHAR nine
ENCODING 57
SWIDTH 360 0
DWIDTH 5 0
BBX 5 10 0 0
BITMAP
1500
4000
4040
4040
4040
1540
0100
0100
0400
0400
ENDCHAR
STARTCHAR colon
ENCODING 58
SWIDTH 181 0
DWIDTH 3 0
BBX 1 6 1 0
BITMAP
40
00
00
00
00
40
ENDCHAR
STARTCHAR semicolon
ENCODING 59
SWIDTH 165 0
DWIDTH 2 0
BBX 2 3 0 -2
BITMAP
10
10
40
ENDCHAR
STARTCHAR less
ENCODING 60
SWIDTH 482 0
DWIDTH 7 0
BBX 5 5 1 1
BITMAP
0140
1400
4000
1000
0100
ENDCHAR
STARTCHAR equal
ENCODING 61
SWIDTH 577 0
DWIDTH 8 0
BBX 6 3 1 2
BITMAP
5550
0000
5550
ENDCHAR
STARTCHAR greater
ENCODING 62
SWIDTH 482 0
DWIDTH 7 0
BBX 5 5 1 1
BITMAP
5000
0500
0040
0500
5000
ENDCHAR
STARTCHAR question
ENCODING 63
SWIDTH 300 0
DWIDTH 4 0
BBX 3 10 1 0
BITMAP
50
04
04
10
10
40
40
00
00
40
ENDCHAR
STARTCHAR at
ENCODING 64
SWIDTH 748 0
DWIDTH 10 0
BBX 10 10 0 0
BITMAP
015500
141440
104410
404010
411010
411410
412010
111040
155500
015540
ENDCHAR
STARTCHAR A
ENCODING 65
SWIDTH 414 0
DWIDTH 6 0
BBX 6 10 0 0
BITMAP
0400
0500
0500
0100
1000
1540
1040
4040
4010
4010
ENDCHAR
STARTCHAR B
ENCODING 66
SWIDTH 375 0
DWIDTH 5 0
BBX 4 10 1 0
BITMAP
54
04
01
01
55
54
01
01
01
54
ENDCHAR
STARTCHAR C
ENCODING 67
SWIDTH 366 0
DWIDTH 5 0
BBX 5 10 0 0
BITMAP
1540
1000
4000
4000
4000
4000
4000
4000
1000
1540
ENDCHAR
STARTCHAR D
ENCODING 68
SWIDTH 396 0
DWIDTH 6 0
BBX 4 10 1 0
BITMAP
54
01
01
01
01
01
01
01
01
54
ENDCHAR
STARTCHAR E
ENCODING 69
SWIDTH 309 0
DWIDTH 4 0
BBX 3 10 1 0
BITMAP
54
00
00
00
50
00
00
00
00
54
ENDCHAR
STARTCHAR F
ENCODING 70
SWIDTH 299 0
DWIDTH 4 0
BBX 3 5 1 5
BITMAP
54
00
00
00
54
ENDCHAR
STARTCHAR G
ENCODING 71
SWIDTH 382 0
DWIDTH 5 0
BBX 5 10 0 0
BITMAP
1540
1000
4000
4000
4000
4140
4040
4040
1040
1540
ENDCHAR
STARTCHAR H
ENCODING 72
SWIDTH 425 0
DWIDTH 6 0
BBX 4 10 1 0
BITMAP
01
01
01
01
55
01
01
01
01
01
ENDCHAR
STARTCHAR I
ENCODING 73
SWIDTH 141 0
DWIDTH 2 0
BBX 1 1 1 0
BITMAP
00
ENDCHAR
STARTCHAR J
ENCODING 74
SWIDTH 142 0
DWIDTH 2 0
BBX 2 2 -1 -3
BITMAP
10
50
ENDCHAR
STARTCHAR K
ENCODING 75
SWIDTH 401 0
DWIDTH 6 0
BBX 5 10 0 0
BITMAP
1040
1100
1100
6800
6100
1040
1040
1040
1040
1040
ENDCHAR
STARTCHAR L
ENCODING 76
SWIDTH 347 0
DWIDTH 5 0
BBX 3 1 1 0
BITMAP
54
ENDCHAR
STARTCHAR M
ENCODING 77
SWIDTH 534 0
DWIDTH 7 0
BBX 7 10 0 0
BITMAP
1014
1544
1204
1144
1144
1104
0144
4104
4004
4004
ENDCHAR
STARTCHAR N
ENCODING 78
SWIDTH 422 0
DWIDTH 6 0
BBX 4 10 1 0
BITMAP
41
41
41
11
11
05
05
05
02
01
ENDCHAR
STARTCHAR O
ENCODING 79
SWIDTH 446 0
DWIDTH 6 0
BBX 6 10 0 0
BITMAP
1540
1040
4010
4010
4010
4010
4010
4010
1040
1540
ENDCHAR
STARTCHAR P
ENCODING 80
SWIDTH 341 0
DWIDTH 5 0
BBX 4 6 1 4
BITMAP
54
00
01
01
04
50
ENDCHAR
STARTCHAR Q
ENCODING 81
SWIDTH 446 0
DWIDTH 6 0
BBX 6 14 0 -4
BITMAP
1540
1040
4010
4010
4010
4010
5010
5450
1540
1A40
0500
0100
0500
0500
ENDCHAR
STARTCHAR R
ENCODING 82
SWIDTH 380 0
DWIDTH 5 0
BBX 5 10 0 0
BITMAP
5500
4040
4040
5040
8600
5500
4100
4040
4040
4040
ENDCHAR
STARTCHAR S
ENCODING 83
SWIDTH 356 0
DWIDTH 5 0
BBX 5 10 0 0
BITMAP
1500
4000
4000
1000
1400
0100
0040
0040
4040
1500
ENDCHAR
STARTCHAR T
ENCODING 84
SWIDTH 377 0
DWIDTH 5 0
BBX 5 10 0 0
BITMAP
5940
0400
0400
0400
0400
0400
0400
0400
0400
0400
ENDCHAR
STARTCHAR U
ENCODING 85
SWIDTH 412 0
DWIDTH 6 0
BBX 5 10 0 0
BITMAP
4040
4040
4040
4040
4040
4040
4040
4040
0040
1540
ENDCHAR
STARTCHAR V
ENCODING 86
SWIDTH 384 0
DWIDTH 5 0
BBX 5 10 0 0
BITMAP
4040
4040
4040
1040
1100
1100
1100
0500
0400
0400
ENDCHAR
STARTCHAR W
ENCODING 87
SWIDTH 534 0
DWIDTH 7 0
BBX 7 10 0 0
BITMAP
4004
4004
4004
0144
1144
1104
1104
1144
1454
1014
ENDCHAR
STARTCHAR X
ENCODING 88
SWIDTH 318 0
DWIDTH 4 0
BBX 4 10 0 0
BITMAP
41
11
10
14
04
14
14
11
41
40
ENDCHAR
STARTCHAR Y
ENCODING 89
SWIDTH 370 0
DWIDTH 5 0
BBX 5 10 0 0
BITMAP
4040
4040
1100
1100
0500
0400
0400
0400
0400
0400
ENDCHAR
STARTCHAR Z
ENCODING 90
SWIDTH 309 0
DWIDTH 4 0
BBX 4 10 0 0
BITMAP
55
01
00
04
04
10
10
10
40
55
ENDCHAR
STARTCHAR bracketleft
ENCODING 91
SWIDTH 193 0
DWIDTH 3 0
BBX 2 13 1 -1
BITMAP
50
00
00
00
00
00
00
00
00
00
00
00
50
ENDCHAR
STARTCHAR backslash
ENCODING 92
SWIDTH 292 0
DWIDTH 4 0
BBX 4 12 0 -1
BITMAP
40
40
40
10
10
10
04
04
04
01
01
01
ENDCHAR
STARTCHAR bracketright
ENCODING 93
SWIDTH 193 0
DWIDTH 3 0
BBX 2 13 0 -1
BITMAP
50
10
10
10
10
10
10
10
10
10
10
10
50
ENDCHAR
STARTCHAR asciicircum
ENCODING 94
SWIDTH 416 0
DWIDTH 6 0
BBX 6 6 0 4
BITMAP
0400
0500
1100
1040
1040
4010
ENDCHAR
STARTCHAR underscore
ENCODING 95
SWIDTH 556 0
DWIDTH 8 0
BBX 6 1 1 -1
BITMAP
5550
ENDCHAR
STARTCHAR grave
ENCODING 96
SWIDTH 201 0
DWIDTH 3 0
BBX 1 1 1 8
BITMAP
40
ENDCHAR
STARTCHAR a
ENCODING 97
SWIDTH 315 0
DWIDTH 4 0
BBX 4 7 0 0
BITMAP
14
01
01
15
41
41
55
ENDCHAR
STARTCHAR b
ENCODING 98
SWIDTH 298 0
DWIDTH 4 0
BBX 3 7 1 0
BITMAP
50
04
04
04
04
04
50
ENDCHAR
STARTCHAR c
ENCODING 99
SWIDTH 275 0
DWIDTH 4 0
BBX 3 7 0 0
BITMAP
14
00
40
40
40
00
14
ENDCHAR
STARTCHAR d
ENCODING 100
SWIDTH 298 0
DWIDTH 4 0
BBX 4 10 0 0
BITMAP
01
01
01
15
41
41
41
41
41
15
ENDCHAR
STARTCHAR e
ENCODING 101
SWIDTH 285 0
DWIDTH 4 0
BBX 4 7 0 0
BITMAP
14
01
55
40
40
11
14
ENDCHAR
STARTCHAR f
ENCODING 102
SWIDTH 178 0
DWIDTH 2 0
BBX 3 10 0 0
BITMAP
14
10
10
60
10
10
10
10
10
10
ENDCHAR
STARTCHAR g
ENCODING 103
SWIDTH 302 0
DWIDTH 4 0
BBX 5 10 0 -3
BITMAP
1400
1100
4100
4100
1100
1400
5000
4500
4040
5500
ENDCHAR
STARTCHAR h
ENCODING 104
SWIDTH 307 0
DWIDTH 4 0
BBX 3 7 1 0
BITMAP
54
44
04
04
04
04
04
ENDCHAR
STARTCHAR i
ENCODING 105
SWIDTH 141 0
DWIDTH 2 0
BBX 1 1 1 0
BITMAP
00
ENDCHAR
STARTCHAR j
ENCODING 106
SWIDTH 141 0
DWIDTH 2 0
BBX 2 2 -1 -3
BITMAP
10
50
ENDCHAR
STARTCHAR k
ENCODING 107
SWIDTH 287 0
DWIDTH 4 0
BBX 3 7 1 0
BITMAP
04
10
50
50
10
04
04
ENDCHAR
STARTCHAR l
ENCODING 108
SWIDTH 141 0
DWIDTH 2 0
BBX 1 1 1 0
BITMAP
00
ENDCHAR
STARTCHAR m
ENCODING 109
SWIDTH 407 0
DWIDTH 6 0
BBX 4 7 1 0
BITMAP
42
15
15
15
11
01
01
ENDCHAR
STARTCHAR n
ENCODING 110
SWIDTH 307 0
DWIDTH 4 0
BBX 3 7 1 0
BITMAP
54
44
04
04
04
04
04
ENDCHAR
STARTCHAR o
ENCODING 111
SWIDTH 309 0
DWIDTH 4 0
BBX 4 7 0 0
BITMAP
14
01
41
41
41
01
14
ENDCHAR
STARTCHAR p
ENCODING 112
SWIDTH 299 0
DWIDTH 4 0
BBX 4 7 0 0
BITMAP
54
01
01
01
01
01
14
ENDCHAR
STARTCHAR q
ENCODING 113
SWIDTH 286 0
DWIDTH 4 0
BBX 4 10 0 -3
BITMAP
15
41
41
41
41
41
15
01
01
01
ENDCHAR
STARTCHAR r
ENCODING 114
SWIDTH 277 0
DWIDTH 4 0
BBX 3 2 1 5
BITMAP
54
04
ENDCHAR
STARTCHAR s
ENCODING 115
SWIDTH 257 0
DWIDTH 4 0
BBX 4 7 0 0
BITMAP
14
40
10
14
04
41
54
ENDCHAR
STARTCHAR t
ENCODING 116
SWIDTH 207 0
DWIDTH 3 0
BBX 2 9 0 0
BITMAP
10
10
60
10
10
10
10
10
10
ENDCHAR
STARTCHAR u
ENCODING 117
SWIDTH 307 0
DWIDTH 4 0
BBX 4 7 0 0
BITMAP
41
41
41
41
41
41
15
ENDCHAR
STARTCHAR v
ENCODING 118
SWIDTH 285 0
DWIDTH 4 0
BBX 4 7 0 0
BITMAP
41
41
40
14
14
14
14
ENDCHAR
STARTCHAR w
ENCODING 119
SWIDTH 396 0
DWIDTH 6 0
BBX 5 7 0 0
BITMAP
4040
4440
4540
4540
4440
1540
1040
ENDCHAR
STARTCHAR x
ENCODING 120
SWIDTH 244 0
DWIDTH 3 0
BBX 3 7 0 0
BITMAP
44
14
10
10
14
44
44
ENDCHAR
STARTCHAR y
ENCODING 121
SWIDTH 285 0
DWIDTH 4 0
BBX 4 10 0 -3
BITMAP
41
41
41
14
14
14
14
10
10
50
ENDCHAR
STARTCHAR z
ENCODING 122
SWIDTH 233 0
DWIDTH 3 0
BBX 3 7 0 0
BITMAP
14
04
00
10
10
40
54
ENDCHAR
STARTCHAR braceleft
ENCODING 123
SWIDTH 306 0
DWIDTH 4 0
BBX 4 13 0 -1
BITMAP
01
04
04
04
04
04
54
54
04
04
04
04
05
ENDCHAR
STARTCHAR bar
ENCODING 124
SWIDTH 141 0
DWIDTH 2 0
BBX 1 1 1 -1
BITMAP
00
ENDCHAR
STARTCHAR braceright
ENCODING 125
SWIDTH 306 0
DWIDTH 4 0
BBX 4 13 0 -1
BITMAP
50
10
10
10
10
10
15
15
10
10
10
10
50
ENDCHAR
STARTCHAR asciitilde
ENCODING 126
SWIDTH 433 0
DWIDTH 6 0
BBX 6 2 0 3
BITMAP
1410
4140
ENDCHAR
STARTCHAR uni00A0
ENCODING 160
SWIDTH 240 0
DWIDTH 3 0
BBX 1 1 0 0
BITMAP
00
ENDCHAR
STARTCHAR exclamdown
ENCODING 161
SWIDTH 141 0
DWIDTH 2 0
BBX 1 6 0 -1
BITMAP
40
40
40
40
40
40
ENDCHAR
STARTCHAR cent
ENCODING 162
SWIDTH 275 0
DWIDTH 4 0
BBX 4 9 0 -1
BITMAP
04
18
54
44
44
44
15
14
04
ENDCHAR
STARTCHAR sterling
ENCODING 163
SWIDTH 331 0
DWIDTH 5 0
BBX 4 10 0 0
BITMAP
15
40
40
40
10
24
10
10
10
55
ENDCHAR
STARTCHAR currency
ENCODING 164
SWIDTH 506 0
DWIDTH 7 0
BBX 5 5 1 2
BITMAP
5540
4040
4040
4040
5540
ENDCHAR
STARTCHAR yen
ENCODING 165
SWIDTH 370 0
DWIDTH 5 0
BBX 5 10 0 0
BITMAP
4040
4040
1100
1100
0500
0400
1900
1900
0400
0400
ENDCHAR
STARTCHAR brokenbar
ENCODING 166
SWIDTH 141 0
DWIDTH 2 0
BBX 1 1 1 -1
BITMAP
00
ENDCHAR
STARTCHAR section
ENCODING 167
SWIDTH 303 0
DWIDTH 4 0
BBX 4 13 0 -1
BITMAP
14
41
40
50
14
2D
52
00
10
05
01
41
14
ENDCHAR
STARTCHAR dieresis
ENCODING 168
SWIDTH 241 0
DWIDTH 3 0
BBX 1 2 2 8
BITMAP
40
40
ENDCHAR
STARTCHAR copyright
ENCODING 169
SWIDTH 772 0
DWIDTH 11 0
BBX 11 11 0 0
BITMAP
015400
040140
105010
104010
404010
400004
404010
104010
105010
040140
015400
ENDCHAR
STARTCHAR ordfeminine
ENCODING 170
SWIDTH 231 0
DWIDTH 3 0
BBX 3 5 0 5
BITMAP
54
04
14
44
54
ENDCHAR
STARTCHAR guillemotleft
ENCODING 171
SWIDTH 403 0
DWIDTH 6 0
BBX 5 6 0 1
BITMAP
0440
0540
1100
5400
1100
0440
ENDCHAR
STARTCHAR logicalnot
ENCODING 172
SWIDTH 557 0
DWIDTH 8 0
BBX 7 2 1 3
BITMAP
5550
0004
ENDCHAR
STARTCHAR uni00AD
ENCODING 173
SWIDTH 286 0
DWIDTH 4 0
BBX 2 1 1 4
BITMAP
50
ENDCHAR
STARTCHAR registered
ENCODING 174
SWIDTH 772 0
DWIDTH 11 0
BBX 11 11 0 0
BITMAP
015400
040140
105010
104410
404410
405004
404410
104410
104410
040140
015400
ENDCHAR
STARTCHAR macron
ENCODING 175
SWIDTH 266 0
DWIDTH 4 0
BBX 2 1 1 8
BITMAP
50
ENDCHAR
STARTCHAR degree
ENCODING 176
SWIDTH 350 0
DWIDTH 5 0
BBX 3 4 1 6
BITMAP
54
04
44
54
ENDCHAR
STARTCHAR plusminus
ENCODING 177
SWIDTH 577 0
DWIDTH 8 0
BBX 6 7 1 0
BITMAP
0100
0100
5550
0100
0100
0000
5550
ENDCHAR
STARTCHAR uni00B2
ENCODING 178
SWIDTH 207 0
DWIDTH 3 0
BBX 3 5 0 5
BITMAP
54
04
10
10
50
ENDCHAR
STARTCHAR uni00B3
ENCODING 179
SWIDTH 214 0
DWIDTH 3 0
BBX 3 5 0 5
BITMAP
50
04
10
04
54
ENDCHAR
STARTCHAR acute
ENCODING 180
SWIDTH 201 0
DWIDTH 3 0
BBX 1 2 1 8
BITMAP
40
40
ENDCHAR
STARTCHAR uni00B5
ENCODING 181
SWIDTH 335 0
DWIDTH 5 0
BBX 3 7 1 0
BITMAP
04
04
04
04
04
04
54
ENDCHAR
STARTCHAR paragraph
ENCODING 182
SWIDTH 471 0
DWIDTH 7 0
BBX 5 10 1 0
BITMAP
7D40
FD40
FD40
FD40
7D40
0140
0140
0140
0140
0140
ENDCHAR
STARTCHAR periodcentered
ENCODING 183
SWIDTH 181 0
DWIDTH 3 0
BBX 1 1 1 4
BITMAP
40
ENDCHAR
STARTCHAR cedilla
ENCODING 184
SWIDTH 232 0
DWIDTH 3 0
BBX 1 1 1 -3
BITMAP
40
ENDCHAR
STARTCHAR uni00B9
ENCODING 185
SWIDTH 176 0
DWIDTH 2 0
BBX 2 5 0 5
BITMAP
50
10
10
10
60
ENDCHAR
STARTCHAR ordmasculine
ENCODING 186
SWIDTH 201 0
DWIDTH 3 0
BBX 3 5 0 5
BITMAP
50
44
44
44
50
ENDCHAR
STARTCHAR guillemotright
ENCODING 187
SWIDTH 403 0
DWIDTH 6 0
BBX 4 6 1 1
BITMAP
50
44
11
11
44
10
ENDCHAR
STARTCHAR onequarter
ENCODING 188
SWIDTH 527 0
DWIDTH 7 0
BBX 6 10 1 0
BITMAP
4000
4040
4040
4100
8100
0440
0440
1140
1190
4040
ENDCHAR
STARTCHAR onehalf
ENCODING 189
SWIDTH 540 0
DWIDTH 8 0
BBX 6 10 1 0
BITMAP
4000
4040
4040
4100
8100
0450
0410
1010
1040
4050
ENDCHAR
STARTCHAR threequarters
ENCODING 190
SWIDTH 517 0
DWIDTH 7 0
BBX 7 10 0 0
BITMAP
5000
0410
1010
0440
5440
0110
0110
0450
0454
1010
ENDCHAR
STARTCHAR questiondown
ENCODING 191
SWIDTH 300 0
DWIDTH 4 0
BBX 4 10 0 -2
BITMAP
04
00
00
04
04
04
10
10
40
15
ENDCHAR
STARTCHAR Agrave
ENCODING 192
SWIDTH 414 0
DWIDTH 6 0
BBX 6 12 0 0
BITMAP
0400
0000
0400
0500
0500
0100
1000
1540
1040
4040
4010
4010
ENDCHAR
STARTCHAR Aacute
ENCODING 193
SWIDTH 414 0
DWIDTH 6 0
BBX 6 12 0 0
BITMAP
0100
0000
0400
0500
0500
0100
1000
1540
1040
4040
4010
4010
ENDCHAR
STARTCHAR Acircumflex
ENCODING 194
SWIDTH 414 0
DWIDTH 6 0
BBX 6 12 0 0
BITMAP
0400
0500
0400
0500
0500
0100
1000
1540
1040
4040
4010
4010
ENDCHAR
STARTCHAR Atilde
ENCODING 195
SWIDTH 414 0
DWIDTH 6 0
BBX 6 13 0 0
BITMAP
0400
0100
0000
0400
0500
0500
0100
1000
1540
1040
4040
4010
4010
ENDCHAR
STARTCHAR Adieresis
ENCODING 196
SWIDTH 414 0
DWIDTH 6 0
BBX 6 12 0 0
BITMAP
0500
0000
0400
0500
0500
0100
1000
1540
1040
4040
4010
4010
ENDCHAR
STARTCHAR Aring
ENCODING 197
SWIDTH 414 0
DWIDTH 6 0
BBX 6 12 0 0
BITMAP
0500
0500
0400
0500
0500
0100
1000
1540
1040
4040
4010
4010
ENDCHAR
STARTCHAR AE
ENCODING 198
SWIDTH 545 0
DWIDTH 8 0
BBX 7 10 0 0
BITMAP
0094
0140
0140
0040
0054
0540
0040
1040
4040
4054
ENDCHAR
STARTCHAR Ccedilla
ENCODING 199
SWIDTH 366 0
DWIDTH 5 0
BBX 5 13 0 -3
BITMAP
1540
1000
4000
4000
4000
4000
4000
4000
1000
1540
0000
0000
0500
ENDCHAR
STARTCHAR Egrave
ENCODING 200
SWIDTH 309 0
DWIDTH 4 0
BBX 3 12 1 0
BITMAP
40
00
54
00
00
00
50
00
00
00
00
54
ENDCHAR
STARTCHAR Eacute
ENCODING 201
SWIDTH 309 0
DWIDTH 4 0
BBX 3 12 1 0
BITMAP
10
00
54
00
00
00
50
00
00
00
00
54
ENDCHAR
STARTCHAR Ecircumflex
ENCODING 202
SWIDTH 309 0
DWIDTH 4 0
BBX 3 12 1 0
BITMAP
10
50
54
00
00
00
50
00
00
00
00
54
ENDCHAR
STARTCHAR Edieresis
ENCODING 203
SWIDTH 309 0
DWIDTH 4 0
BBX 3 12 1 0
BITMAP
50
00
54
00
00
00
50
00
00
00
00
54
ENDCHAR
STARTCHAR Igrave
ENCODING 204
SWIDTH 141 0
DWIDTH 2 0
BBX 1 1 0 11
BITMAP
40
ENDCHAR
STARTCHAR Iacute
ENCODING 205
SWIDTH 141 0
DWIDTH 2 0
BBX 1 1 1 11
BITMAP
40
ENDCHAR
STARTCHAR Icircumflex
ENCODING 206
SWIDTH 141 0
DWIDTH 2 0
BBX 2 2 0 10
BITMAP
40
50
ENDCHAR
STARTCHAR Idieresis
ENCODING 207
SWIDTH 141 0
DWIDTH 2 0
BBX 2 1 0 11
BITMAP
50
ENDCHAR
STARTCHAR Eth
ENCODING 208
SWIDTH 396 0
DWIDTH 6 0
BBX 5 10 0 0
BITMAP
1500
0040
0040
0040
0040
5440
0040
0040
0040
1500
ENDCHAR
STARTCHAR Ntilde
ENCODING 209
SWIDTH 422 0
DWIDTH 6 0
BBX 4 13 1 0
BITMAP
10
04
00
41
41
41
11
11
05
05
05
02
01
ENDCHAR
STARTCHAR Ograve
ENCODING 210
SWIDTH 446 0
DWIDTH 6 0
BBX 6 12 0 0
BITMAP
0400
0000
1540
1040
4010
4010
4010
4010
4010
4010
1040
1540
ENDCHAR
STARTCHAR Oacute
ENCODING 211
SWIDTH 446 0
DWIDTH 6 0
BBX 6 12 0 0
BITMAP
0100
0000
1540
1040
4010
4010
4010
4010
4010
4010
1040
1540
ENDCHAR
STARTCHAR Ocircumflex
ENCODING 212
SWIDTH 446 0
DWIDTH 6 0
BBX 6 12 0 0
BITMAP
0100
0500
1540
1040
4010
4010
4010
4010
4010
4010
1040
1540
ENDCHAR
STARTCHAR Otilde
ENCODING 213
SWIDTH 446 0
DWIDTH 6 0
BBX 6 13 0 0
BITMAP
0400
0100
0000
1540
1040
4010
4010
4010
4010
4010
4010
1040
1540
ENDCHAR
STARTCHAR Odieresis
ENCODING 214
SWIDTH 446 0
DWIDTH 6 0
BBX 6 12 0 0
BITMAP
0500
0000
1540
1040
4010
4010
4010
4010
4010
4010
1040
1540
ENDCHAR
STARTCHAR multiply
ENCODING 215
SWIDTH 445 0
DWIDTH 6 0
BBX 5 5 1 1
BITMAP
4040
1100
1800
1100
4040
ENDCHAR
STARTCHAR Oslash
ENCODING 216
SWIDTH 446 0
DWIDTH 6 0
BBX 6 10 0 0
BITMAP
1550
1040
4050
4110
4110
4410
4410
5410
2040
1540
ENDCHAR
STARTCHAR Ugrave
ENCODING 217
SWIDTH 412 0
DWIDTH 6 0
BBX 5 12 0 0
BITMAP
0400
0000
4040
4040
4040
4040
4040
4040
4040
4040
0040
1540
ENDCHAR
STARTCHAR Uacute
ENCODING 218
SWIDTH 412 0
DWIDTH 6 0
BBX 5 12 0 0
BITMAP
0100
0000
4040
4040
4040
4040
4040
4040
4040
4040
0040
1540
ENDCHAR
STARTCHAR Ucircumflex
ENCODING 219
SWIDTH 412 0
DWIDTH 6 0
BBX 5 12 0 0
BITMAP
0400
0500
4040
4040
4040
4040
4040
4040
4040
4040
0040
1540
ENDCHAR
STARTCHAR Udieresis
ENCODING 220
SWIDTH 412 0
DWIDTH 6 0
BBX 5 12 0 0
BITMAP
0500
0000
4040
4040
4040
4040
4040
4040
4040
4040
0040
1540
ENDCHAR
STARTCHAR Yacute
ENCODING 221
SWIDTH 370 0
DWIDTH 5 0
BBX 5 12 0 0
BITMAP
0100
0000
4040
4040
1100
1100
0500
0400
0400
0400
0400
0400
ENDCHAR
STARTCHAR Thorn
ENCODING 222
SWIDTH 341 0
DWIDTH 5 0
BBX 4 6 1 3
BITMAP
54
04
01
01
04
50
ENDCHAR
STARTCHAR germandbls
ENCODING 223
SWIDTH 327 0
DWIDTH 5 0
BBX 3 10 1 0
BITMAP
50
44
04
54
54
04
04
04
04
50
ENDCHAR
STARTCHAR agrave
ENCODING 224
SWIDTH 315 0
DWIDTH 4 0
BBX 4 10 0 0
BITMAP
10
04
00
14
01
01
15
41
41
55
ENDCHAR
STARTCHAR aacute
ENCODING 225
SWIDTH 315 0
DWIDTH 4 0
BBX 4 10 0 0
BITMAP
04
04
00
14
01
01
15
41
41
55
ENDCHAR
STARTCHAR acircumflex
ENCODING 226
SWIDTH 315 0
DWIDTH 4 0
BBX 4 10 0 0
BITMAP
14
10
00
14
01
01
15
41
41
55
ENDCHAR
STARTCHAR atilde
ENCODING 227
SWIDTH 315 0
DWIDTH 4 0
BBX 4 10 0 0
BITMAP
10
04
00
14
01
01
15
41
41
55
ENDCHAR
STARTCHAR adieresis
ENCODING 228
SWIDTH 315 0
DWIDTH 4 0
BBX 4 10 0 0
BITMAP
14
14
00
14
01
01
15
41
41
55
ENDCHAR
STARTCHAR aring
ENCODING 229
SWIDTH 315 0
DWIDTH 4 0
BBX 4 9 0 0
BITMAP
14
14
14
01
01
15
41
41
55
ENDCHAR
STARTCHAR ae
ENCODING 230
SWIDTH 450 0
DWIDTH 6 0
BBX 6 7 0 0
BITMAP
1550
0110
0110
1550
4100
4100
5550
ENDCHAR
STARTCHAR ccedilla
ENCODING 231
SWIDTH 275 0
DWIDTH 4 0
BBX 3 10 0 -3
BITMAP
14
00
40
40
40
00
14
00
00
14
ENDCHAR
STARTCHAR egrave
ENCODING 232
SWIDTH 285 0
DWIDTH 4 0
BBX 4 10 0 0
BITMAP
10
04
00
14
01
55
40
40
11
14
ENDCHAR
STARTCHAR eacute
ENCODING 233
SWIDTH 285 0
DWIDTH 4 0
BBX 4 10 0 0
BITMAP
04
04
00
14
01
55
40
40
11
14
ENDCHAR
STARTCHAR ecircumflex
ENCODING 234
SWIDTH 285 0
DWIDTH 4 0
BBX 4 10 0 0
BITMAP
14
10
00
14
01
55
40
40
11
14
ENDCHAR
STARTCHAR edieresis
ENCODING 235
SWIDTH 285 0
DWIDTH 4 0
BBX 4 10 0 0
BITMAP
14
14
00
14
01
55
40
40
11
14
ENDCHAR
STARTCHAR igrave
ENCODING 236
SWIDTH 141 0
DWIDTH 2 0
BBX 1 2 0 8
BITMAP
40
40
ENDCHAR
STARTCHAR iacute
ENCODING 237
SWIDTH 141 0
DWIDTH 2 0
BBX 1 2 1 8
BITMAP
40
40
ENDCHAR
STARTCHAR icircumflex
ENCODING 238
SWIDTH 141 0
DWIDTH 2 0
BBX 2 2 0 8
BITMAP
50
50
ENDCHAR
STARTCHAR idieresis
ENCODING 239
SWIDTH 141 0
DWIDTH 2 0
BBX 2 2 0 8
BITMAP
50
50
ENDCHAR
STARTCHAR eth
ENCODING 240
SWIDTH 319 0
DWIDTH 4 0
BBX 4 10 0 0
BITMAP
10
19
00
15
01
41
41
41
01
14
ENDCHAR
STARTCHAR ntilde
ENCODING 241
SWIDTH 307 0
DWIDTH 4 0
BBX 3 10 1 0
BITMAP
40
10
00
54
44
04
04
04
04
04
ENDCHAR
STARTCHAR ograve
ENCODING 242
SWIDTH 309 0
DWIDTH 4 0
BBX 4 10 0 0
BITMAP
10
04
00
14
01
41
41
41
01
14
ENDCHAR
STARTCHAR oacute
ENCODING 243
SWIDTH 309 0
DWIDTH 4 0
BBX 4 10 0 0
BITMAP
04
04
00
14
01
41
41
41
01
14
ENDCHAR
STARTCHAR ocircumflex
ENCODING 244
SWIDTH 309 0
DWIDTH 4 0
BBX 4 10 0 0
BITMAP
14
10
00
14
01
41
41
41
01
14
ENDCHAR
STARTCHAR otilde
ENCODING 245
SWIDTH 309 0
DWIDTH 4 0
BBX 4 10 0 0
BITMAP
10
04
00
14
01
41
41
41
01
14
ENDCHAR
STARTCHAR odieresis
ENCODING 246
SWIDTH 309 0
DWIDTH 4 0
BBX 4 10 0 0
BITMAP
14
14
00
14
01
41
41
41
01
14
ENDCHAR
STARTCHAR divide
ENCODING 247
SWIDTH 577 0
DWIDTH 8 0
BBX 6 7 1 0
BITMAP
0100
0000
0000
5550
0000
0000
0100
ENDCHAR
STARTCHAR oslash
ENCODING 248
SWIDTH 309 0
DWIDTH 4 0
BBX 4 7 0 0
BITMAP
15
05
45
45
51
11
54
ENDCHAR
STARTCHAR ugrave
ENCODING 249
SWIDTH 307 0
DWIDTH 4 0
BBX 4 10 0 0
BITMAP
10
04
00
41
41
41
41
41
41
15
ENDCHAR
STARTCHAR uacute
ENCODING 250
SWIDTH 307 0
DWIDTH 4 0
BBX 4 10 0 0
BITMAP
04
04
00
41
41
41
41
41
41
15
ENDCHAR
STARTCHAR ucircumflex
ENCODING 251
SWIDTH 307 0
DWIDTH 4 0
BBX 4 10 0 0
BITMAP
14
10
00
41
41
41
41
41
41
15
ENDCHAR
STARTCHAR udieresis
ENCODING 252
SWIDTH 307 0
DWIDTH 4 0
BBX 4 10 0 0
BITMAP
14
14
00
41
41
41
41
41
41
15
ENDCHAR
STARTCHAR yacute
ENCODING 253
SWIDTH 285 0
DWIDTH 4 0
BBX 4 13 0 -3
BITMAP
04
04
00
41
41
41
14
14
14
14
10
10
50
ENDCHAR
STARTCHAR thorn
ENCODING 254
SWIDTH 299 0
DWIDTH 4 0
BBX 4 7 0 0
BITMAP
54
01
01
01
01
01
14
ENDCHAR
STARTCHAR ydieresis
ENCODING 255
SWIDTH 285 0
DWIDTH 4 0
BBX 4 13 0 -3
BITMAP
14
14
00
41
41
41
14
14
14
14
10
10
50
ENDCHAR
STARTCHAR dotlessi
ENCODING 305
SWIDTH 141 0
DWIDTH 2 0
BBX 1 1 1 0
BITMAP
00
ENDCHAR
STARTCHAR OE
ENCODING 338
SWIDTH 505 0
DWIDTH 7 0
BBX 6 10 0 0
BITMAP
1650
1100
4100
4100
4150
4100
4100
4100
1100
1650
ENDCHAR
STARTCHAR oe
ENCODING 339
SWIDTH 492 0
DWIDTH 7 0
BBX 7 7 0 0
BITMAP
1450
0204
4254
4100
4200
0104
1450
ENDCHAR
STARTCHAR Wcircumflex
ENCODING 372
SWIDTH 534 0
DWIDTH 7 0
BBX 7 12 0 0
BITMAP
0100
0140
4004
4004
4004
0144
1144
1104
1104
1144
1454
1014
ENDCHAR
STARTCHAR wcircumflex
ENCODING 373
SWIDTH 396 0
DWIDTH 6 0
BBX 5 10 0 0
BITMAP
0500
0100
0000
4040
4440
4540
4540
4440
1540
1040
ENDCHAR
STARTCHAR Ycircumflex
ENCODING 374
SWIDTH 370 0
DWIDTH 5 0
BBX 5 12 0 0
BITMAP
0400
0100
4040
4040
1100
1100
0500
0400
0400
0400
0400
0400
ENDCHAR
STARTCHAR ycircumflex
ENCODING 375
SWIDTH 285 0
DWIDTH 4 0
BBX 4 13 0 -3
BITMAP
14
14
00
41
41
41
14
14
14
14
10
10
50
ENDCHAR
STARTCHAR Ydieresis
ENCODING 376
SWIDTH 370 0
DWIDTH 5 0
BBX 5 12 0 0
BITMAP
1100
0000
4040
4040
1100
1100
0500
0400
0400
0400
0400
0400
ENDCHAR
STARTCHAR uni0237
ENCODING 567
SWIDTH 141 0
DWIDTH 2 0
BBX 2 2 -1 -3
BITMAP
10
50
ENDCHAR
STARTCHAR circumflex
ENCODING 710
SWIDTH 280 0
DWIDTH 4 0
BBX 2 2 1 8
BITMAP
50
50
ENDCHAR
STARTCHAR ring
ENCODING 730
SWIDTH 238 0
DWIDTH 3 0
BBX 1 2 1 7
BITMAP
40
40
ENDCHAR
STARTCHAR tilde
ENCODING 732
SWIDTH 301 0
DWIDTH 4 0
BBX 2 2 1 8
BITMAP
40
10
ENDCHAR
STARTCHAR gravecomb
ENCODING 768
SWIDTH 0 0
DWIDTH 0 0
BBX 1 1 1 8
BITMAP
40
ENDCHAR
STARTCHAR acutecomb
ENCODING 769
SWIDTH 0 0
DWIDTH 0 0
BBX 1 2 1 8
BITMAP
40
40
ENDCHAR
STARTCHAR uni0302
ENCODING 770
SWIDTH 0 0
DWIDTH 0 0
BBX 2 2 1 8
BITMAP
50
50
ENDCHAR
STARTCHAR tildecomb
ENCODING 771
SWIDTH 0 0
DWIDTH 0 0
BBX 2 2 1 8
BITMAP
40
10
ENDCHAR
STARTCHAR uni0307
ENCODING 775
SWIDTH 0 0
DWIDTH 0 0
BBX 1 1 1 8
BITMAP
00
ENDCHAR
STARTCHAR uni0308
ENCODING 776
SWIDTH 0 0
DWIDTH 0 0
BBX 1 2 2 8
BITMAP
40
40
ENDCHAR
STARTCHAR uni030A
ENCODING 778
SWIDTH 0 0
DWIDTH 0 0
BBX 1 2 1 7
BITMAP
40
40
ENDCHAR
STARTCHAR uni0327
ENCODING 807
SWIDTH 0 0
DWIDTH 0 0
BBX 1 1 1 -3
BITMAP
40
ENDCHAR
STARTCHAR Wgrave
ENCODING 7808
SWIDTH 534 0
DWIDTH 7 0
BBX 7 12 0 0
BITMAP
0100
0000
4004
4004
4004
0144
1144
1104
1104
1144
1454
1014
ENDCHAR
STARTCHAR wgrave
ENCODING 7809
SWIDTH 396 0
DWIDTH 6 0
BBX 5 10 0 0
BITMAP
0400
0400
0000
4040
4440
4540
4540
4440
1540
1040
ENDCHAR
STARTCHAR Wacute
ENCODING 7810
SWIDTH 534 0
DWIDTH 7 0
BBX 7 12 0 0
BITMAP
0040
0000
4004
4004
4004
0144
1144
1104
1104
1144
1454
1014
ENDCHAR
STARTCHAR wacute
ENCODING 7811
SWIDTH 396 0
DWIDTH 6 0
BBX 5 10 0 0
BITMAP
0100
0400
0000
4040
4440
4540
4540
4440
1540
1040
ENDCHAR
STARTCHAR Wdieresis
ENCODING 7812
SWIDTH 534 0
DWIDTH 7 0
BBX 7 12 0 0
BITMAP
0140
0000
4004
4004
4004
0144
1144
1104
1104
1144
1454
1014
ENDCHAR
STARTCHAR wdieresis
ENCODING 7813
SWIDTH 396 0
DWIDTH 6 0
BBX 5 10 0 0
BITMAP
0500
0500
0000
4040
4440
4540
4540
4440
1540
1040
ENDCHAR
STARTCHAR uni1E9E
ENCODING 7838
SWIDTH 375 0
DWIDTH 5 0
BBX 4 10 1 0
BITMAP
54
44
04
54
54
01
01
01
00
54
ENDCHAR
STARTCHAR Ygrave
ENCODING 7922
SWIDTH 370 0
DWIDTH 5 0
BBX 5 12 0 0
BITMAP
0400
0000
4040
4040
1100
1100
0500
0400
0400
0400
0400
0400
ENDCHAR
STARTCHAR ygrave
ENCODING 7923
SWIDTH 285 0
DWIDTH 4 0
BBX 4 13 0 -3
BITMAP
10
10
00
41
41
41
14
14
14
14
10
10
50
ENDCHAR
STARTCHAR endash
ENCODING 8211
SWIDTH 425 0
DWIDTH 6 0
BBX 4 1 1 3
BITMAP
55
ENDCHAR
STARTCHAR emdash
ENCODING 8212
SWIDTH 770 0
DWIDTH 11 0
BBX 9 1 1 3
BITMAP
555540
ENDCHAR
STARTCHAR quoteleft
ENCODING 8216
SWIDTH 145 0
DWIDTH 2 0
BBX 2 3 0 7
BITMAP
10
40
40
ENDCHAR
STARTCHAR quoteright
ENCODING 8217
SWIDTH 145 0
DWIDTH 2 0
BBX 2 3 0 7
BITMAP
10
10
40
ENDCHAR
STARTCHAR quotesinglbase
ENCODING 8218
SWIDTH 145 0
DWIDTH 2 0
BBX 2 3 0 -2
BITMAP
10
10
40
ENDCHAR
STARTCHAR quotedblleft
ENCODING 8220
SWIDTH 219 0
DWIDTH 3 0
BBX 3 3 0 7
BITMAP
14
50
50
ENDCHAR
STARTCHAR quotedblright
ENCODING 8221
SWIDTH 219 0
DWIDTH 3 0
BBX 3 3 0 7
BITMAP
14
14
50
ENDCHAR
STARTCHAR quotedblbase
ENCODING 8222
SWIDTH 219 0
DWIDTH 3 0
BBX 3 3 0 -2
BITMAP
14
14
50
ENDCHAR
STARTCHAR bullet
ENCODING 8226
SWIDTH 355 0
DWIDTH 5 0
BBX 3 4 1 3
BITMAP
B8
FC
FC
10
ENDCHAR
STARTCHAR ellipsis
ENCODING 8230
SWIDTH 651 0
DWIDTH 9 0
BBX 7 1 1 0
BITMAP
4104
ENDCHAR
STARTCHAR guilsinglleft
ENCODING 8249
SWIDTH 263 0
DWIDTH 4 0
BBX 3 6 0 1
BITMAP
04
04
10
50
10
04
ENDCHAR
STARTCHAR guilsinglright
ENCODING 8250
SWIDTH 263 0
DWIDTH 4 0
BBX 2 5 1 2
BITMAP
40
40
10
10
40
ENDCHAR
STARTCHAR fraction
ENCODING 8260
SWIDTH 152 0
DWIDTH 2 0
BBX 6 10 -2 0
BITMAP
0010
0040
0040
0100
0100
0400
0400
1000
1000
4000
ENDCHAR
STARTCHAR uni2074
ENCODING 8308
SWIDTH 247 0
DWIDTH 3 0
BBX 3 4 0 6
BITMAP
10
10
50
54
ENDCHAR
STARTCHAR Euro
ENCODING 8364
SWIDTH 391 0
DWIDTH 5 0
BBX 5 10 0 0
BITMAP
0540
1000
1000
1000
5400
5400
1000
1000
1000
0540
ENDCHAR
STARTCHAR trademark
ENCODING 8482
SWIDTH 506 0
DWIDTH 7 0
BBX 7 5 0 5
BITMAP
B954
1154
1154
1154
1104
ENDCHAR
STARTCHAR minus
ENCODING 8722
SWIDTH 557 0
DWIDTH 8 0
BBX 8 1 0 4
BITMAP
7FFD
ENDCHAR
STARTCHAR uni2215
ENCODING 8725
SWIDTH 259 0
DWIDTH 4 0
BBX 4 10 0 0
BITMAP
01
04
04
04
10
10
10
00
40
40
ENDCHAR
STARTCHAR .notdef
ENCODING -1
SWIDTH 500 0
DWIDTH 7 0
BBX 7 13 0 -3
BITMAP
6AA4
5014
5014
5014
5014
5014
5014
5014
5014
5014
5014
5014
6AA4
ENDCHAR
STARTCHAR NULL
ENCODING -1
SWIDTH 600 0
DWIDTH 8 0
BBX 1 1 0 0
BITMAP
00
ENDCHAR
STARTCHAR acutecomb.case
ENCODING -1
SWIDTH 0 0
DWIDTH 0 0
BBX 1 1 1 11
BITMAP
40
ENDCHAR
STARTCHAR uni0302.case
ENCODING -1
SWIDTH 0 0
DWIDTH 0 0
BBX 2 2 1 10
BITMAP
40
50
ENDCHAR
STARTCHAR uni0308.case
ENCODING -1
SWIDTH 0 0
DWIDTH 0 0
BBX 1 1 2 11
BITMAP
40
ENDCHAR
STARTCHAR uni0307.case
ENCODING -1
SWIDTH 0 0
DWIDTH 0 0
BBX 1 1 1 10
BITMAP
00
ENDCHAR
STARTCHAR gravecomb.case
ENCODING -1
SWIDTH 0 0
DWIDTH 0 0
BBX 1 1 1 11
BITMAP
40
ENDCHAR
STARTCHAR uni030A.case
ENCODING -1
SWIDTH 0 0
DWIDTH 0 0
BBX 1 2 1 10
BITMAP
40
40
ENDCHAR
STARTCHAR tildecomb.case
ENCODING -1
SWIDTH 0 0
DWIDTH 0 0
BBX 2 2 1 11
BITMAP
40
10
ENDCHAR
ENDFONT
